<?xml version="1.0" encoding="UTF-8"?>
<svg version="1.1" xmlns="http://www.w3.org/2000/svg" width="195" height="30">
<path d="M0 0 C64.35 0 128.7 0 195 0 C195 9.9 195 19.8 195 30 C130.65 30 66.3 30 0 30 C0 20.1 0 10.2 0 0 Z " fill="#373737" transform="translate(0,0)"/>
<path d="M0 0 C3.3 0 6.6 0 10 0 C10 0.99 10 1.98 10 3 C10.99 3 11.98 3 13 3 C13 5.31 13 7.62 13 10 C8.71 10 4.42 10 0 10 C-0.33 9.01 -0.66 8.02 -1 7 C-1.33 7.99 -1.66 8.98 -2 10 C-3.99954746 10.04254356 -6.00041636 10.04080783 -8 10 C-9 9 -9 9 -9.0625 5.9375 C-9.041875 4.968125 -9.02125 3.99875 -9 3 C-8.34 3.66 -7.68 4.32 -7 5 C-6.67 4.34 -6.34 3.68 -6 3 C-2.9375 2.375 -2.9375 2.375 0 2 C0 1.34 0 0.68 0 0 Z " fill="#959595" transform="translate(111,10)"/>
<path d="M0 0 C0.66 0.66 1.32 1.32 2 2 C2.33 1.34 2.66 0.68 3 0 C5.64 0 8.28 0 11 0 C11 2.31 11 4.62 11 7 C10.34 7 9.68 7 9 7 C8.67 6.01 8.34 5.02 8 4 C7.67 4.99 7.34 5.98 7 7 C5.00045254 7.04254356 2.99958364 7.04080783 1 7 C0 6 0 6 -0.0625 2.9375 C-0.041875 1.968125 -0.02125 0.99875 0 0 Z " fill="#CDCDCD" transform="translate(102,13)"/>
<path d="M0 0 C3.53571429 0.53571429 3.53571429 0.53571429 5 2 C5.04092937 4.33297433 5.04241723 6.66705225 5 9 C2.625 9.625 2.625 9.625 0 10 C-2 8 -2 8 -2.25 5 C-2 2 -2 2 0 0 Z " fill="#B3B3B3" transform="translate(153,10)"/>
<path d="M0 0 C1.67542976 0.28604898 3.34385343 0.61781233 5 1 C5 3.64 5 6.28 5 9 C3.34385343 9.38218767 1.67542976 9.71395102 0 10 C-1 9 -1 9 -1.1328125 7.1875 C-1.13023438 6.465625 -1.12765625 5.74375 -1.125 5 C-1.12757812 4.278125 -1.13015625 3.55625 -1.1328125 2.8125 C-1 1 -1 1 0 0 Z " fill="#BBBBBB" transform="translate(71,10)"/>
<path d="M0 0 C1.65 0 3.3 0 5 0 C5 3.3 5 6.6 5 10 C3.35 10 1.7 10 0 10 C0 6.7 0 3.4 0 0 Z " fill="#A8A8A8" transform="translate(166,10)"/>
<path d="M0 0 C0.99 0 1.98 0 3 0 C3.99 1.98 4.98 3.96 6 6 C7.50559539 4.03617993 8.89131683 2.21736634 10 0 C10.99 0.33 11.98 0.66 13 1 C11.02 4.63 9.04 8.26 7 12 C3.6497537 8.18765077 1.83025211 4.66714289 0 0 Z " fill="#E8E8E8" transform="translate(21,10)"/>
<path d="M0 0 C0.99 0 1.98 0 3 0 C3.33 1.32 3.66 2.64 4 4 C4.66 3.01 5.32 2.02 6 1 C6 3.97 6 6.94 6 10 C5.34 10 4.68 10 4 10 C3.67 9.01 3.34 8.02 3 7 C2.67 7.99 2.34 8.98 2 10 C1.34 10 0.68 10 0 10 C0 6.7 0 3.4 0 0 Z " fill="#E2E2E2" transform="translate(91,10)"/>
<path d="M0 0 C1.65 0.33 3.3 0.66 5 1 C5 1.66 5 2.32 5 3 C3.68 2.67 2.36 2.34 1 2 C1 4.31 1 6.62 1 9 C1.66 9 2.32 9 3 9 C2.67 7.68 2.34 6.36 2 5 C2.99 5 3.98 5 5 5 C5 6.65 5 8.3 5 10 C3.33388095 10.042721 1.66617115 10.04063832 0 10 C-1 9 -1 9 -1.125 5.5625 C-1 2 -1 2 0 0 Z " fill="#E4E4E4" transform="translate(78,10)"/>
<path d="M0 0 C1.98 0 3.96 0 6 0 C4.68 0.33 3.36 0.66 2 1 C2 1.66 2 2.32 2 3 C2.99 3 3.98 3 5 3 C5 3.66 5 4.32 5 5 C4.01 5 3.02 5 2 5 C2 5.66 2 6.32 2 7 C3.32 7 4.64 7 6 7 C6 7.66 6 8.32 6 9 C4.02 9 2.04 9 0 9 C0 6.03 0 3.06 0 0 Z " fill="#D9D9D9" transform="translate(128,11)"/>
<path d="M0 0 C0.66 0 1.32 0 2 0 C1.54177532 3.46941546 1.10868317 6.67395049 0 10 C-0.99 10 -1.98 10 -3 10 C-3.33 7.03 -3.66 4.06 -4 1 C-3.01 1.99 -2.02 2.98 -1 4 C-0.67 2.68 -0.34 1.36 0 0 Z " fill="#E2E2E2" transform="translate(139,10)"/>
<path d="M0 0 C0.99 0 1.98 0 3 0 C3 2.97 3 5.94 3 9 C3.99 9.33 4.98 9.66 6 10 C4.02 10 2.04 10 0 10 C0 6.7 0 3.4 0 0 Z " fill="#BBBBBB" transform="translate(63,10)"/>
<path d="M0 0 C1.65 0 3.3 0 5 0 C5 2.31 5 4.62 5 7 C3.35 7 1.7 7 0 7 C0 4.69 0 2.38 0 0 Z " fill="#D9D9D9" transform="translate(172,13)"/>
<path d="M0 0 C1.65 0 3.3 0 5 0 C4.01 0.33 3.02 0.66 2 1 C2 1.66 2 2.32 2 3 C2.99 3 3.98 3 5 3 C5 3.66 5 4.32 5 5 C4.01 5 3.02 5 2 5 C2 5.99 2 6.98 2 8 C2.99 8.33 3.98 8.66 5 9 C3.35 9 1.7 9 0 9 C0 6.03 0 3.06 0 0 Z " fill="#F4F4F4" transform="translate(142,11)"/>
<path d="M0 0 C3.96 0.33 7.92 0.66 12 1 C12 1.66 12 2.32 12 3 C8.04 3 4.08 3 0 3 C0 2.01 0 1.02 0 0 Z " fill="#FBFBFB" transform="translate(35,17)"/>
<path d="M0 0 C3.96 0.33 7.92 0.66 12 1 C12 1.66 12 2.32 12 3 C8.04 3 4.08 3 0 3 C0 2.01 0 1.02 0 0 Z " fill="#FCFCFC" transform="translate(8,17)"/>
<path d="M0 0 C2.475 0.495 2.475 0.495 5 1 C5 1.99 5 2.98 5 4 C3.68 4 2.36 4 1 4 C1 4.66 1 5.32 1 6 C1.99 5.67 2.98 5.34 4 5 C4 5.66 4 6.32 4 7 C2.68 7 1.36 7 0 7 C0 4.69 0 2.38 0 0 Z " fill="#D5D5D5" transform="translate(179,13)"/>
<path d="M0 0 C3.96 0 7.92 0 12 0 C12 0.66 12 1.32 12 2 C6.06 2.495 6.06 2.495 0 3 C0 2.01 0 1.02 0 0 Z " fill="#FBFBFB" transform="translate(35,10)"/>
<path d="M0 0 C3.96 0 7.92 0 12 0 C12 0.66 12 1.32 12 2 C6.06 2.495 6.06 2.495 0 3 C0 2.01 0 1.02 0 0 Z " fill="#FCFCFC" transform="translate(8,10)"/>
<path d="M0 0 C2.97 0 5.94 0 9 0 C7.25 4.875 7.25 4.875 5 6 C5 5.34 5 4.68 5 4 C4.01 4 3.02 4 2 4 C2 3.34 2 2.68 2 2 C1.34 1.34 0.68 0.68 0 0 Z " fill="#686868" transform="translate(128,10)"/>
<path d="M0 0 C1.32 0.33 2.64 0.66 4 1 C4 1.66 4 2.32 4 3 C3.01 3.495 3.01 3.495 2 4 C2 4.99 2 5.98 2 7 C1.34 7 0.68 7 0 7 C0 4.69 0 2.38 0 0 Z " fill="#4D4D4D" transform="translate(79,12)"/>
<path d="M0 0 C2 2 2 2 2.125 5.625 C2.08375 6.73875 2.0425 7.8525 2 9 C1.34 9 0.68 9 0 9 C-1.125 2.25 -1.125 2.25 0 0 Z " fill="#DFDFDF" transform="translate(115,11)"/>
</svg>
