<?xml version="1.0" standalone="no"?>
<!DOCTYPE svg PUBLIC "-//W3C//DTD SVG 20010904//EN"
 "http://www.w3.org/TR/2001/REC-SVG-20010904/DTD/svg10.dtd">
<svg version="1.0" xmlns="http://www.w3.org/2000/svg"
 width="195.000000pt" height="30.000000pt" viewBox="0 0 195.000000 30.000000"
 preserveAspectRatio="xMidYMid meet">
<metadata>
Created by potrace 1.10, written by Peter Selinger 2001-2011
</metadata>
<g transform="translate(0.000000,30.000000) scale(0.050000,-0.050000)"
fill="#000000" stroke="none">
<path d="M9 574 c-6 -14 -8 -147 -5 -295 l6 -269 1940 0 1940 0 0 290 0 290
-1936 5 c-1577 4 -1937 0 -1945 -21z m391 -194 c0 -11 -40 -20 -88 -20 -49 0
-103 -5 -120 -12 -21 -8 -32 -1 -32 20 0 26 23 32 120 32 67 0 120 -9 120 -20z
m100 -40 c37 -89 56 -91 94 -11 18 39 45 71 60 71 19 0 12 -27 -23 -95 -82
-158 -79 -158 -149 -26 -47 89 -57 121 -36 121 16 0 40 -27 54 -60z m440 40
c0 -11 -40 -20 -88 -20 -49 0 -103 -5 -120 -12 -21 -8 -32 -1 -32 20 0 26 23
32 120 32 67 0 120 -9 120 -20z m380 -71 c0 -48 9 -69 30 -69 17 0 30 -9 30
-20 0 -11 -27 -20 -60 -20 -59 0 -94 139 -47 186 25 26 47 -10 47 -77z m190
-9 c0 -120 -95 -141 -106 -23 -9 93 8 127 61 119 39 -5 45 -18 45 -96z m145
64 c6 -17 -4 -24 -28 -20 -44 7 -64 -76 -26 -111 19 -18 22 -13 14 22 -8 30
-2 45 17 45 17 0 28 -21 28 -51 0 -87 -108 -62 -116 27 -10 101 83 173 111 88z
m145 -64 c0 -55 -9 -100 -20 -100 -11 0 -20 45 -20 100 0 55 9 100 20 100 11
0 20 -45 20 -100z m89 45 l29 -55 1 56 c1 32 10 51 21 44 11 -7 20 -52 20
-101 0 -104 -44 -123 -77 -34 l-20 55 -1 -55 c-3 -99 -42 -57 -42 45 0 112 24
127 69 45z m568 -5 c13 0 23 -31 23 -70 0 -88 -39 -93 -43 -5 l-3 65 -8 -65
c-13 -104 -46 -75 -45 40 0 92 4 101 27 70 14 -19 37 -35 49 -35z m284 -10
l11 -60 16 65 c15 63 52 91 52 40 -1 -150 -88 -225 -110 -95 -13 75 -110 128
-110 60 0 -11 18 -20 40 -20 22 0 40 -9 40 -20 0 -11 -18 -20 -40 -20 -22 0
-40 -9 -40 -20 0 -11 18 -20 40 -20 22 0 40 -9 40 -20 0 -11 -27 -20 -60 -20
-59 0 -60 2 -60 101 l0 101 85 -6 c77 -5 86 -12 96 -66z m209 50 c7 -11 -6
-20 -29 -20 -22 0 -41 -9 -41 -20 0 -11 14 -20 30 -20 17 0 30 -9 30 -20 0
-11 -13 -20 -30 -20 -16 0 -30 -9 -30 -20 0 -11 13 -20 29 -20 16 0 34 -9 41
-20 7 -12 -13 -20 -49 -20 -60 0 -61 2 -61 100 0 99 68 148 110 80z m189 -9
c13 -15 21 -58 17 -95 -8 -90 -107 -110 -128 -26 -26 104 53 191 111 121z
m221 -82 c0 -49 -9 -89 -20 -89 -11 0 -20 46 -20 101 0 63 8 97 20 89 11 -7
20 -52 20 -101z m-1019 76 c16 -163 -27 -245 -46 -90 -10 80 -4 105 26 105 11
0 20 -7 20 -15z m-196 -55 c9 -12 15 -11 15 5 0 14 9 25 20 25 25 0 26 -80 1
-119 -15 -24 -23 -24 -49 -2 -24 19 -32 20 -32 2 0 -49 -49 -6 -61 53 -13 63
66 90 106 36z m115 -40 c0 -38 -9 -70 -20 -70 -11 0 -20 32 -20 70 0 39 9 70
20 70 11 0 20 -31 20 -70z m1036 -5 c4 -37 -3 -65 -15 -65 -11 0 -21 23 -21
50 0 28 -9 50 -20 50 -11 0 -20 -22 -20 -50 0 -27 -9 -50 -20 -50 -11 0 -20
32 -20 71 0 103 106 97 116 -6z m124 5 c0 -38 -9 -70 -20 -70 -11 0 -20 32
-20 70 0 39 9 70 20 70 11 0 20 -31 20 -70z m120 0 c0 -88 -39 -93 -43 -5 l-3
65 -8 -65 c-11 -87 -46 -83 -46 5 0 61 6 70 50 70 44 0 50 -9 50 -70z m136 25
c5 -24 -6 -35 -36 -35 -23 0 -37 -9 -31 -19 7 -11 27 -14 45 -7 22 9 28 5 18
-11 -41 -67 -126 1 -101 81 16 48 96 41 105 -9z m-3276 5 c0 -11 -53 -20 -120
-20 -67 0 -120 9 -120 20 0 11 53 20 120 20 67 0 120 -9 120 -20z m540 0 c0
-11 -53 -20 -120 -20 -67 0 -120 9 -120 20 0 11 53 20 120 20 67 0 120 -9 120
-20z m-628 -60 c48 0 88 -9 88 -20 0 -11 -53 -20 -120 -20 -97 0 -120 6 -120
32 0 21 11 28 32 20 17 -7 71 -12 120 -12z m540 0 c48 0 88 -9 88 -20 0 -11
-53 -20 -120 -20 -97 0 -120 6 -120 32 0 21 11 28 32 20 17 -7 71 -12 120 -12z"/>
<path d="M1440 289 c0 -43 8 -66 20 -59 11 7 20 39 20 71 0 33 -9 59 -20 59
-11 0 -20 -32 -20 -71z"/>
<path d="M3080 290 c0 -43 8 -67 20 -60 11 7 20 34 20 60 0 26 -9 53 -20 60
-12 7 -20 -17 -20 -60z"/>
</g>
</svg>
